<?xml version="1.0" encoding="UTF-8" standalone="no"?>
<svg viewBox="0 0 277 277" xmlns="http://www.w3.org/2000/svg" xmlns:svg="http://www.w3.org/2000/svg">
   
	<style type="text/css" id="style1">
		.st0{fill-rule:evenodd;clip-rule:evenodd;fill:#FFFFFF;}
		.st1{fill-rule:evenodd;clip-rule:evenodd;fill:#DD4645;}
	</style>
	<g>
		<path id="bg" class="st0" d="m 180.5,87.5 c -25.8,0 -47.7,9.1 -65.7,27.2 -18.1,18 -27.2,39.9 -27.2,65.7 0,25.8 9.1,47.7 27.2,65.6 6.7,6.8 13.9,12.3 21.6,16.6 H 23.6 c -1.8,-0.1 -3.5,-0.6 -5.2,-1.5 -2.8,-1.4 -4.2,-4 -4.2,-7.9 V 23.6 c 0.2,-2 0.7,-3.8 1.4,-5.2 1.5,-2.8 4.2,-4.2 8.1,-4.2 h 229.5 l 1.5,0.3 c 1.4,0.2 2.5,0.6 3.6,1 2.9,1.4 4.4,4 4.4,8.1 v 112.9 c -4.3,-7.8 -9.8,-15.1 -16.6,-21.8 C 227.7,96.6 205.9,87.5 180.5,87.5 Z" />
		
		<path id="frame" class="st1" d="m 180.5,87.5 c 25.4,0 47.3,9.1 65.5,27.2 6.8,6.7 12.3,14 16.5,21.8 V 23.6 c 0,-4.1 -1.5,-6.8 -4.4,-8.1 -1,-0.4 -2.2,-0.8 -3.6,-1 L 253,14.2 H 23.6 c -3.9,0 -6.6,1.4 -8.1,4.2 -0.7,1.5 -1.1,3.2 -1.4,5.2 V 253 c 0,3.9 1.4,6.6 4.2,7.9 1.7,0.9 3.4,1.4 5.2,1.5 h 112.8 c -7.8,-4.3 -15,-9.8 -21.6,-16.6 C 96.6,227.9 87.5,206 87.5,180.2 c 0,-25.8 9.1,-47.7 27.2,-65.7 18.1,-17.9 40,-27 65.8,-27 z M 259.1,3.7 c 2.5,0.5 4.4,1.1 5.7,1.9 5.6,2.7 8.4,7.6 8.4,14.7 v 160.2 c 0,25.7 -9.1,47.5 -27.4,65.6 -18.2,18.2 -40.1,27.4 -65.5,27.4 H 20.2 c -2.7,0 -5.5,-0.7 -8.4,-2 -5.6,-2.9 -8.4,-7.9 -8.4,-14.9 V 20.2 c 0,-2.8 0.7,-5.6 2.2,-8.4 2.7,-5.6 7.6,-8.4 14.7,-8.4 h 236.2 z" />
	
		<path id="link" class="st0" d="m 146.72656,236.06799 c -2.60937,-0.36263 -5.59243,-1.33629 -8.1654,-2.66518 -12.64811,-6.53249 -17.73532,-22.0705 -11.39552,-34.80566 1.77494,-3.56543 2.26984,-4.11697 16.58148,-18.47919 14.38248,-14.43329 15.35087,-15.3078 18.96275,-17.12452 1.86539,-0.93826 4.93739,-1.92434 7.2478,-2.32647 3.00554,-0.52312 7.90032,-0.33778 10.73891,0.40661 4.26537,1.11856 8.1811,3.25182 11.34388,6.18008 2.19598,2.03314 2.79204,3.29713 2.79204,5.92076 0,1.71326 -0.08,2.13547 -0.60923,3.21303 -0.73067,1.48789 -1.96873,2.65907 -3.63812,3.44159 -1.01402,0.47533 -1.54154,0.57641 -2.98498,0.57198 -2.16527,-0.007 -3.47823,-0.53738 -5.56495,-2.24948 -2.56071,-2.10099 -4.67364,-2.89678 -7.67931,-2.89226 -2.08586,0.003 -3.96566,0.48523 -5.66992,1.4541 -1.39359,0.79225 -26.31616,25.59752 -27.45027,27.32107 -1.2574,1.91093 -1.81659,3.81192 -1.81734,6.17826 -0.001,3.2195 1.00574,5.68245 3.2334,7.9101 2.26615,2.26616 4.6822,3.23402 8.01968,3.21267 2.24893,-0.0144 3.7855,-0.42266 5.68069,-1.50934 0.57786,-0.33134 4.35548,-3.91095 8.90337,-8.4367 6.21269,-6.18242 8.01805,-7.86116 8.45413,-7.86116 0.30496,0 1.28677,0.24993 2.18179,0.5554 3.55998,1.21502 7.15243,1.85347 10.43633,1.85476 1.34234,6.2e-4 1.66647,0.0778 2.18066,0.52012 0.45541,0.39173 0.60396,0.71764 0.60396,1.3251 0,0.771 -0.46537,1.27111 -10.83754,11.64671 -6.66781,6.67002 -11.46995,11.29673 -12.48124,12.02529 -5.47809,3.94649 -12.18457,5.5688 -19.06705,4.61233 z m 34.99028,-36.16077 c -4.79122,-0.91113 -9.65903,-3.40784 -13.0199,-6.67794 -1.86923,-1.81875 -2.51406,-3.13402 -2.63325,-5.37104 -0.11883,-2.23024 0.45139,-3.89224 1.84749,-5.38478 1.42332,-1.52165 3.21441,-2.26907 5.4435,-2.27156 2.11538,-0.003 3.46225,0.54144 5.47903,2.21221 1.72525,1.42926 2.55349,1.90945 4.27365,2.47775 1.81066,0.5982 4.60324,0.64833 6.46526,0.11605 2.78191,-0.79522 3.0279,-1.01045 16.50443,-14.44033 7.47189,-7.44603 13.13616,-13.2661 13.63948,-14.01464 2.1512,-3.19927 2.3414,-7.72976 0.47987,-11.42985 -0.70786,-1.40699 -3.13791,-3.83704 -4.5449,-4.54491 -3.49044,-1.75605 -7.74004,-1.67054 -11.06632,0.22265 -0.5613,0.31948 -4.39103,3.9444 -8.8886,8.41328 -8.86865,8.81205 -8.11307,8.29222 -10.66655,7.33843 -2.93349,-1.09573 -7.32424,-1.89726 -10.3931,-1.89726 -1.52562,0 -1.6911,-0.0464 -2.28534,-0.64063 -0.72954,-0.72953 -0.80808,-1.41144 -0.25565,-2.21935 0.21015,-0.30733 5.26391,-5.3914 11.23058,-11.29792 7.63139,-7.55446 11.31126,-11.04395 12.409,-11.76699 3.4595,-2.27865 6.89875,-3.60593 10.87266,-4.196 2.90852,-0.43187 4.66104,-0.43187 7.56956,0 5.44139,0.80797 10.22485,3.13446 14.15997,6.88686 4.74272,4.52251 7.36473,9.9138 8.06475,16.58247 0.63777,6.07568 -1.29618,12.96852 -5.03624,17.94972 -2.00669,2.67261 -27.98889,28.46157 -30.06846,29.84483 -2.93474,1.95208 -5.52449,3.07662 -8.76646,3.80664 -2.59447,0.58421 -8.46859,0.74842 -10.81446,0.30231 z" />
		
		<path id="path_heic" class="st1" transform="scale(1.024889,0.97571541)" d="M 28.499656,24.69342 V 78.864409 H 35.70318 V 52.343404 h 27.030367 v 26.521005 h 7.203524 V 24.69342 H 62.733547 V 45.939849 H 35.70318 V 24.69342 Z m 96.548184,22.253303 c -2.30181,0 -4.39972,0.359125 -6.29451,1.074932 -1.88075,0.715807 -3.48803,1.753264 -4.8214,3.114702 -1.37547,1.403543 -2.4279,3.123335 -3.15774,5.158474 -0.72985,2.035138 -1.09387,4.343488 -1.09387,6.926008 0,2.722874 0.37789,5.117019 1.1358,7.180228 0.75791,2.049173 1.81032,3.739034 3.15773,5.0724 1.37547,1.361438 2.98969,2.364981 4.84237,3.010612 1.86671,0.631594 3.93692,0.948823 6.21066,0.948823 1.20705,0 2.30987,-0.09976 3.30638,-0.296257 1.01055,-0.182461 1.94329,-0.40591 2.79946,-0.672584 1.01055,-0.322814 1.82554,-0.63206 2.4431,-0.926804 0.6316,-0.294744 1.33194,-0.60997 2.10389,-0.946821 v -4.884237 h -0.29348 c -1.52987,1.375473 -3.1737,2.406948 -4.92812,3.094685 -1.75443,0.687736 -3.63379,1.030894 -5.64086,1.030894 -1.45969,0 -2.85033,-0.245398 -4.16966,-0.736639 -1.30529,-0.505275 -2.44777,-1.277387 -3.43025,-2.316009 -0.94038,-0.996516 -1.7138,-2.287355 -2.31732,-3.87336 -0.58949,-1.586004 -0.88424,-3.481368 -0.88424,-5.684931 0,-2.105315 0.26704,-3.956781 0.80039,-5.55682 0.54739,-1.614075 1.30504,-2.948813 2.27349,-4.001471 0.99651,-1.080729 2.12704,-1.872787 3.39023,-2.378063 1.27723,-0.51931 2.70943,-0.778675 4.29544,-0.778675 1.93688,0 3.7539,0.329192 5.45219,0.988858 1.69829,0.659665 2.92993,3.158739 5.13775,3.158739 h 0.31444 v -4.948292 c -2.04917,-1.024587 -3.91468,-1.740835 -5.59893,-2.147863 -1.67022,-0.407027 -3.34869,-0.610529 -5.03294,-0.610529 z M 76.223956,47.515216 V 78.864409 H 96.875964 V 75.159195 H 80.391709 V 63.515094 H 96.875964 V 59.80988 H 80.391709 v -8.58945 h 16.484255 v -3.705214 z m 25.286654,0 -0.002,31.349193 h 2.82805 1.34732 c -0.0141,-10.449371 0.01,-20.899816 0.004,-31.349193 z" />
	</g>
</svg>
